<?xml version="1.0" encoding="UTF-8"?>
<!--suppress XmlDefaultAttributeValue -->
<svg xmlns:xlink="http://www.w3.org/1999/xlink"
    height="512" version="1.1"
    viewBox="0 0 135.46666 135.46667"
    width="512"
    xmlns="http://www.w3.org/2000/svg">
    <defs>
        <linearGradient gradientUnits="userSpaceOnUse" id="a" x1="115.96" x2="360.88" y1="170.04"
            y2="172.64" xlink:href="#b" />
        <linearGradient id="b">
            <stop offset="0" stop-color="#3d0282" />
            <stop offset="1" stop-color="#ff0981" />
        </linearGradient>
    </defs>
    <g transform="translate(0 -161.53)">
        <g fill="url(#a)" transform="matrix(.53246 0 0 .54867 -59.051 115.39)">
            <path
                d="m258.75 306.64c-0.66604-1.0306-8.2088-13.921-26.261-44.88-3.8676-6.6327-4.273-7.2071-5.1453-7.2906-0.52081-0.0499-7.9608 0.92214-16.533 2.16s-15.978 2.2506-16.457 2.2506c-0.50308 0-1.7573-0.60308-2.9735-1.4298-11.727-7.9715-28.054-19.369-28.297-19.754-0.22559-0.35764 0.45733-1.9313 2.6202-6.0378 1.6089-3.0548 2.8191-5.6585 2.6892-5.786-0.12985-0.12754-7.5081-1.3426-16.396-2.7002-8.888-1.3576-16.324-2.6267-16.524-2.8202-0.57017-0.55188-16.811-52.643-16.55-53.081 0.56673-0.94928 23.641-31.822 24.242-32.436 0.724-0.73883 68.75-27.351 70.431-27.553 0.528-0.0635 5.136 0.90359 10.24 2.149s11.944 2.9105 15.2 3.7001 8.512 2.0658 11.68 2.8358 18.648 4.5323 34.4 8.3605c15.752 3.8282 28.817 7.0994 29.032 7.2692 0.5558 0.43732 4.1095 5.4469 4.7594 6.7092 0.29838 0.57955 1.3679 2.0617 2.3767 3.2937 2.8807 3.5179 31.031 43.037 31.031 43.563 0 0.25912 0.7248 7.6274 1.6107 16.374s1.9633 19.503 2.3943 23.903c0.43101 4.4 0.8504 8.4757 0.932 9.0572 0.11344 0.80853-0.017 1.2004-0.55433 1.6663-0.38647 0.33499-6.8947 4.8747-14.463 10.088-7.568 5.2136-13.965 9.6782-14.216 9.9213-0.39126 0.37923-0.40333 1.819-0.0848 10.128 0.29366 7.6611 0.28867 9.7649-0.024 10.064-0.43613 0.41726-41.034 15.795-41.699 15.795-0.22844 0-3.516-2.664-7.3057-5.92-6.3673-5.4706-7.8587-6.5726-7.4711-5.52 0.081 0.22 0.51921 1.552 0.97376 2.96 0.45456 1.408 2.3534 7.2291 4.2197 12.936 1.8663 5.7067 3.32 10.567 3.2305 10.8-0.13038 0.33976-2.169 0.42413-10.248 0.42413h-10.086zm10.001-7.0851c0.34647-0.21953-0.56117-3.277-4.48-15.091l-4.9145-14.816-8.64-4.5771c-7.913-4.192-9.44-4.9071-9.44-4.4212 0 0.0931 2.7567 4.8811 6.126 10.64 3.3693 5.7589 8.3516 14.287 11.072 18.951 2.7201 4.664 5.2353 8.732 5.5894 9.04 0.69452 0.60411 3.8736 0.79055 4.6874 0.27489zm37.118-23.164c7.63-2.8748 13.975-5.4348 14.101-5.6888 0.23222-0.46941-0.15679-12.384-0.44444-13.613-0.23283-0.99479-23.124-15.953-23.861-15.592-0.82646 0.40385-26.547 24.857-26.548 25.239-2.4e-4 0.48052 1.417 1.7714 10.47 9.5363l8.0702 6.9219 2.1698-0.78781c1.1934-0.4333 8.4124-3.1399 16.042-6.0147zm-37.608-20.151c3.2106-3.036 9.1084-8.6057 13.106-12.377s7.2688-7.0283 7.2688-7.2376c0-0.45148-29.139-19.665-29.824-19.665-0.48966 0-22.104 30.132-22.271 31.047-0.071 0.3892 2.6749 1.9834 10.88 6.3167 10.661 5.6302 14.225 7.4263 14.749 7.4327 0.13957 2e-3 2.8806-2.4809 6.0912-5.5169zm-59.519-7.4498c6.718-0.97338 13.135-1.9015 14.261-2.0624 1.1256-0.16096 2.1844-0.43066 2.3531-0.59933 0.3072-0.3072-0.56533-9.374-1.5136-15.728-0.24951-1.672-0.60002-4.48-0.77889-6.24-1.0879-10.704-3.644-32.434-3.8868-33.042-0.2725-0.68239-10.987-7.9913-12.187-8.3139-0.398-0.10693-3.9515 5.0138-14.522 20.927-13.1 19.721-19.039 29.414-19.027 31.053 3e-3 0.3948 3.4839 2.964 11.077 8.1757 6.0902 4.18 11.284 7.6 11.541 7.6s5.9647-0.7964 12.683-1.7698zm125.86-6.8908c3.8453-2.6513 8.6062-5.9273 10.58-7.28 1.9736-1.3527 3.6476-2.6044 3.72-2.7815 0.0724-0.1771-0.20422-3.6331-0.61462-7.68-0.4104-4.0469-1.1852-11.75-1.7217-17.118-1.0969-10.975-1.2511-12.16-1.5824-12.16-0.26726 0-20.88 19.406-21.199 19.958-0.11495 0.19884-0.0819 1.6575 0.0735 3.2415 0.15543 1.584 0.43546 4.752 0.62231 7.04 0.50003 6.1228 0.85485 9.6976 1.2262 12.355 0.18182 1.3008 0.4152 3.3731 0.51865 4.6051 0.3048 3.6294 0.51498 4.64 0.96499 4.64 0.23127 0 3.5666-2.1692 7.4119-4.8205zm-16.145 2.5514c-0.0969-1.4111-1.0205-11.208-1.7244-18.291-0.22771-2.2913-0.51097-3.76-0.72518-3.76-0.60213 0-13.649 12.54-13.549 13.022 0.10979 0.52598 15.293 10.658 15.775 10.527 0.176-0.048 0.2764-0.72209 0.22311-1.4981zm-75.936-19.044c4.9648-6.9702 8.9833-12.897 8.9299-13.17-0.11162-0.57101-22.899-15.622-23.198-15.323-0.17094 0.17094 0.60995 7.5197 2.3171 21.806 0.25238 2.112 0.82105 7.008 1.2637 10.88 0.88332 7.7263 1.0074 8.48 1.3965 8.48 0.1452 0 4.3262-5.7029 9.291-12.673zm62.477-3.8571c5.3438-5.0436 9.8461-9.3904 10.005-9.6593 0.17511-0.29624 0.13939-2.0113-0.0906-4.3498-0.20885-2.1234-0.8059-8.1807-1.3268-13.461s-0.9503-10.032-0.95428-10.56c-4e-3 -0.528-0.13561-1.1628-0.2925-1.4106-0.29194-0.46116-24.205-6.1393-24.825-5.8946-0.57372 0.22654-23.68 33.008-23.68 33.596 0 0.39899 4.6252 3.6268 15.36 10.719 8.448 5.5816 15.524 10.158 15.724 10.169 0.2002 0.0115 4.7362-4.1057 10.08-9.1494zm-141.8-5.1987c0-0.30853-29.278-31.056-29.982-31.487-0.2676-0.16384-0.41797-0.093-0.41797 0.19689 0 0.24904 1.2131 4.3242 2.6959 9.0559 1.4827 4.7317 3.4112 10.884 4.2856 13.673 0.87435 2.7883 1.722 5.2018 1.8836 5.3634 0.25879 0.25879 18.958 3.3592 20.815 3.4513 0.396 0.0196 0.72-0.0943 0.72-0.25328zm24.08-19.323c6.82-10.249 12.397-18.777 12.394-18.951-0.0103-0.51491-52.428-34.783-52.828-34.536-0.64431 0.3982-18.242 24.19-18.133 24.516 0.23696 0.71086 45.245 47.612 45.688 47.609 0.27755-2e-3 5.71-7.8627 12.88-18.637zm69.762 7.8516c1.2123-1.3558 21.457-30.046 21.486-30.449 0.0242-0.33708-6.6296-1.9892-26.688-6.6264-14.696-3.3976-26.986-6.1835-27.31-6.191-0.51742-0.0119-0.56749 0.17348-0.40687 1.5064 0.10074 0.836 0.40688 3.464 0.68032 5.84 1.6532 14.365 2.0355 17.073 2.4465 17.325 0.23656 0.14555 6.8381 4.505 14.67 9.6876 7.832 5.1826 14.326 9.4329 14.43 9.4449 0.10473 0.0121 0.41574-0.23004 0.69114-0.53804zm76.158-9.9691c3.652-3.449 6.64-6.3678 6.64-6.4861 3e-5 -0.11835-0.46797-0.36436-1.04-0.54668-2.009-0.64036-16.518-3.8781-17.378-3.8781h-0.87024l0.20483 2c0.11267 1.1 0.55312 5.5592 0.97878 9.9094 0.42567 4.3502 0.86848 8.0624 0.9841 8.2495 0.23686 0.38324 0.93325-0.23124 10.481-9.248zm-115.28-15.471c-4e-3 -0.56421-0.91645-8.4732-1.1443-9.92-0.10396-0.66-0.31714-1.2-0.47373-1.2-0.4024 0-4.779 6.5928-4.779 7.199 0 0.43855 5.5199 4.3072 6.16 4.3173 0.132 2e-3 0.23869-0.17623 0.2371-0.39623zm120.56-0.3205c-0.31504-0.82102-20.467-28.72-20.745-28.72-0.1592 0-0.28946 0.37683-0.28946 0.8374 0 2.0039 2.2928 23.663 2.53 23.901 0.27658 0.27658 17.042 4.3235 18.064 4.3605 0.34963 0.0127 0.53098-0.14334 0.44054-0.37898zm-27.106-6.8795c9e-3 -0.85505-1.3291-15.908-1.9247-21.654-0.1724-1.6633-0.48357-3.042-0.74575-3.3042-0.55067-0.55066-0.0595-1.1614-7.654 9.5185-7.5515 10.62-8.3614 11.828-8.1028 12.096 0.26077 0.2699 16.674 4.1642 17.698 4.1993 0.57603 0.0197 0.72182-0.15133 0.72909-0.85536zm-101.44-9.2083 5.2234-7.8483-0.6869-5.8317c-0.3778-3.2074-1.2028-10.296-1.8332-15.752-2.0625-17.848-1.8084-16.325-2.7167-16.286-0.43561 0.0189-8.424 3.023-17.752 6.6759-9.328 3.6529-21.333 8.3413-26.677 10.419-5.3443 2.0774-9.8643 3.9244-10.044 4.1045-0.22326 0.22326 3.0721 2.5662 10.357 7.3638 5.8764 3.87 16.804 11.074 24.284 16.009s13.83 8.9776 14.111 8.9833c0.31742 6e-3 2.4906-2.964 5.7344-7.838zm74.34 3.5367c0.38522-0.38521 4.0629-5.5234 5.9917-8.3712 0.25434-0.37553 1.3398-1.8875 2.412-3.36 6.4416-8.8459 11.97-16.75 11.97-17.112 0-0.4953 0.49862-0.35657-13.12-3.6503-5.896-1.426-15.76-3.8138-21.92-5.3062s-14.224-3.4453-17.92-4.3398-11.112-2.6978-16.48-4.0073c-16.648-4.0613-16.025-3.929-16.212-3.442-0.0919 0.23952 0.072 2.4932 0.36421 5.0082 0.29222 2.515 0.73224 6.7327 0.97782 9.3727 0.24559 2.64 0.65442 6.024 0.90852 7.52s0.71365 5.1237 1.0212 8.0615c0.30757 2.9378 0.66227 5.5082 0.78823 5.712 0.15876 0.25688 57.442 13.838 60.529 14.35 0.11943 0.0198 0.42936-0.17615 0.68873-0.43553z"
                fill="url(#a)" stroke-width=".32" />
        </g>
    </g>
</svg>
